<svg xmlns="http://www.w3.org/2000/svg" viewBox="0 0 719.86 722.7"><defs><filter id="a" height="1.307" width="1.19" color-interpolation-filters="sRGB" y="-.154" x="-.095"><feGaussianBlur stdDeviation="25.955"/></filter><filter id="b" height="2.231" width="1.761" color-interpolation-filters="sRGB" y="-.615" x="-.38"><feGaussianBlur stdDeviation="104.018"/></filter><linearGradient id="lw"><stop style="stop-color:#fa2;stop-opacity:.73003525" offset="0"/><stop style="stop-color:#fa1;stop-opacity:.24383625" offset="1"/></linearGradient></defs><path style="filter:url(#a);fill:#000" d="M841.09 372.67c0 112.03-146.95 202.86-328.23 202.86s-328.23-90.822-328.23-202.86c0-112.03 146.95-202.86 328.23-202.86s328.23 90.822 328.23 202.86z" transform="matrix(.92166 0 0 1.2007 -112.754 -43.128)"/><path style="fill:#ececec" d="M841.09 372.67c0 112.03-146.95 202.86-328.23 202.86s-328.23-90.822-328.23-202.86c0-112.03 146.95-202.86 328.23-202.86s328.23 90.822 328.23 202.86z" transform="matrix(.9913 0 0 1.25 -142.754 -122.927)"/><path style="filter:url(#b);fill:#000" d="M841.09 372.67c0 112.03-146.95 202.86-328.23 202.86s-328.23-90.822-328.23-202.86c0-112.03 146.95-202.86 328.23-202.86s328.23 90.822 328.23 202.86z" transform="matrix(.60096 0 0 .7578 57.43 60.495)"/><path style="fill:#999" d="M761.06 259.12c-2.104 11.329-5.969 22.28-11.406 32.75a227.875 227.875 0 0 1-9.281 40.531c18.094-8.101 37.998-12.594 58.906-12.594 9.799 0 19.379.996 28.656 2.875-21.39 20.76-56.312 34.25-95.781 34.25-.47 0-.937.004-1.406 0a228.273 228.273 0 0 1-26.906 44.25c2.282.043 4.569.063 6.875.063 89.549 0 150.12-24.066 150.12-72.875 0-44.48-34.891-59.731-99.781-69.25z" transform="translate(-155.79 -40.475)"/><path style="fill:gray" d="M285.11 241.81a219.905 219.905 0 0 0-.826 19.125c0 125.78 106.82 227.75 238.58 227.75s238.58-101.97 238.58-227.75c0-6.448-.275-12.813-.825-19.125h-475.5z" transform="translate(-155.79 -40.475)"/><path style="fill:#b3b3b3" d="M754.34 236.95c0 80.476-105.56 145.71-235.77 145.71S282.8 317.421 282.8 236.95c0-80.476 105.56-145.71 235.77-145.71s235.77 65.239 235.77 145.71z" transform="matrix(1.0182 0 0 1.1029 -160.93 -62.724)"/><path style="fill:#999" d="M754.34 236.95c0 80.476-105.56 145.71-235.77 145.71S282.8 317.421 282.8 236.95c0-80.476 105.56-145.71 235.77-145.71s235.77 65.239 235.77 145.71z" transform="matrix(.95482 0 0 1.0196 -128.077 -47.978)"/><path style="fill:url(#lw);fill-opacity:1;stroke-width:1.11414" d="M522.803 109.638c-117.229 0-204.28 69.183-204.28 154.543 0 15.38 2.995 30.245 8.523 44.267 40.513 45.735 113.63 74.18 195.758 74.204 81.15.023 153.115-28.817 195.75-75.226 5.528-14.02 7.26-27.92 8.562-43.245 9.323-109.725-91.304-154.543-204.31-154.543z" transform="translate(-155.79 -40.475)"/></svg>