<?xml version="1.0" encoding="UTF-8" standalone="no"?>
<svg
   xmlns:dc="http://purl.org/dc/elements/1.1/"
   xmlns:cc="http://creativecommons.org/ns#"
   xmlns:rdf="http://www.w3.org/1999/02/22-rdf-syntax-ns#"
   xmlns:svg="http://www.w3.org/2000/svg"
   xmlns="http://www.w3.org/2000/svg"
   xmlns:sodipodi="http://sodipodi.sourceforge.net/DTD/sodipodi-0.dtd"
   xmlns:inkscape="http://www.inkscape.org/namespaces/inkscape"
   id="svg3336"
   version="1.1"
   inkscape:version="1.0.1 (3bc2e813f5, 2020-09-07)"
   xml:space="preserve"
   width="2460"
   height="1852.5"
   viewBox="0 0 2460 1852.5"
   sodipodi:docname="logo-white.svg"><metadata
     id="metadata3342"><rdf:RDF><cc:Work
         rdf:about=""><dc:format>image/svg+xml</dc:format><dc:type
           rdf:resource="http://purl.org/dc/dcmitype/StillImage" /><dc:title></dc:title></cc:Work></rdf:RDF></metadata><defs
     id="defs3340"><clipPath
       clipPathUnits="userSpaceOnUse"
       id="clipPath3350"><path
         d="m 0,1482 1968,0 L 1968,0 0,0 0,1482 Z"
         id="path3352"
         inkscape:connector-curvature="0" /></clipPath></defs><sodipodi:namedview
     pagecolor="#ffffff"
     bordercolor="#666666"
     borderopacity="1"
     objecttolerance="10"
     gridtolerance="10"
     guidetolerance="10"
     inkscape:pageopacity="0"
     inkscape:pageshadow="2"
     inkscape:window-width="3840"
     inkscape:window-height="2136"
     id="namedview3338"
     showgrid="false"
     showguides="true"
     inkscape:guide-bbox="true"
     inkscape:zoom="0.18703499"
     inkscape:cx="664.79847"
     inkscape:cy="998.1201"
     inkscape:window-x="0"
     inkscape:window-y="1080"
     inkscape:window-maximized="1"
     inkscape:current-layer="g3348"
     inkscape:document-rotation="0"><sodipodi:guide
       position="1243.8214,952.71429"
       orientation="1,0"
       id="guide3742" /></sodipodi:namedview><g
     id="g3344"
     inkscape:groupmode="layer"
     inkscape:label="1"
     transform="matrix(1.25,0,0,-1.25,0,1852.5)"><g
       id="g3346"><g
         id="g3348"
         clip-path="url(#clipPath3350)"><g
           id="g3354"
           transform="translate(848.7528,494.1752)"
           style="fill:#ffffff"><path
             d="m 0,0 0.102,-16.909 -1.935,0 c -0.341,2.715 -0.85,4.651 -1.528,5.806 -1.019,1.834 -2.378,3.191 -4.075,4.075 -1.698,0.882 -3.939,1.324 -6.722,1.324 l -9.474,0 0,-72.017 c 0,-3.326 0.441,-5.364 1.325,-6.112 1.222,-1.289 2.816,-1.935 4.787,-1.935 l 2.342,0 0,-2.241 -26.585,0 0,2.241 2.444,0 c 2.037,-0.067 3.701,0.611 4.991,2.037 0.747,1.019 1.121,3.023 1.121,6.01 l 0,72.017 -8.149,0 c -3.125,0 -5.365,-0.238 -6.723,-0.713 -1.699,-0.611 -3.158,-1.767 -4.38,-3.464 -1.222,-1.697 -1.935,-4.041 -2.14,-7.028 l -1.935,0 0,16.909 1.935,0 0,-1.63 52.766,0 0,1.63 L 0,0 Z"
             style="fill:#ffffff;fill-opacity:1;fill-rule:nonzero;stroke:none"
             id="path3356"
             inkscape:connector-curvature="0" /></g><g
           id="g3358"
           transform="translate(869.4305,459.746)"
           style="fill:#ffffff"><path
             d="m 0,0 2.648,0 c 5.908,0 10.372,1.273 13.395,3.819 3.021,2.547 4.533,5.756 4.533,9.627 0,3.802 -0.986,7.011 -2.954,9.626 -1.971,2.613 -4.958,3.921 -8.964,3.921 C 5.94,26.586 3.055,25.736 0,24.447 L 0,0 Z M 27.605,-34.634 6.519,-3.056 C 5.432,-3.26 4.176,-3.362 2.749,-3.362 l -2.749,0 0,-19.354 c 0,-4.211 0.44,-6.824 1.324,-7.843 1.154,-1.495 2.885,-2.241 5.195,-2.241 l 2.445,0 0,-1.834 -26.586,0 0,1.834 2.342,0 c 2.649,0 4.516,0.916 5.602,2.75 0.612,1.086 0.917,3.531 0.917,7.334 l 0,43.597 c 0,4.21 -0.408,6.859 -1.222,7.946 -1.156,1.426 -2.921,2.139 -5.297,2.139 l -2.342,0 0,1.833 17.622,0 0,-4.074 c 7.537,2.649 13.275,3.632 17.214,2.954 4.006,-0.952 7.3,-2.921 9.881,-5.908 2.511,-2.989 3.769,-6.417 3.769,-10.288 0,-4.143 -1.258,-7.742 -3.769,-10.797 -2.513,-3.056 -6.35,-5.231 -11.511,-6.52 l 21.494,-32.698 c 3.937,-5.704 8.759,-9.336 14.464,-10.899 l 0.204,-0.612 c -8.829,0 -15.687,2.412 -20.577,7.233 l -3.564,4.176 z"
             style="fill:#ffffff;fill-opacity:1;fill-rule:nonzero;stroke:none"
             id="path3360"
             inkscape:connector-curvature="0" /></g><g
           id="g3362"
           transform="translate(954.5861,441.8177)"
           style="fill:#ffffff"><path
             d="M 0,0 -13.446,36.772 -23.836,8.659 0,0 Z m -27.299,9.881 15.483,42.375 1.528,0 L 9.779,-3.87 c 1.63,-4.482 3.107,-7.385 4.431,-8.71 1.324,-1.324 3.174,-2.088 5.551,-2.292 l 0,-1.833 -22.817,0 0,1.833 c 2.308,0.135 3.871,0.577 4.686,1.324 0.815,0.747 1.222,1.697 1.222,2.852 0,1.427 -0.374,3.362 -1.121,5.807 l -0.305,0.917 -26.383,9.473 -3.768,-10.288 c -0.952,-2.582 -1.426,-4.517 -1.426,-5.806 0,-1.088 0.407,-2.022 1.222,-2.802 0.815,-0.781 2.648,-1.273 5.501,-1.477 l 0,-1.833 -18.234,0 0,1.833 c 2.376,0.474 3.938,1.12 4.686,1.935 1.425,1.63 3.055,4.855 4.889,9.677 l 3.668,10.085 -12.733,4.584 5.806,1.426 8.047,-2.954 z"
             style="fill:#ffffff;fill-opacity:1;fill-rule:nonzero;stroke:none"
             id="path3364"
             inkscape:connector-curvature="0" /></g><g
           id="g3366"
           transform="translate(994.2095,430.002)"
           style="fill:#ffffff"><path
             d="m 0,0 c 3.734,-0.952 6.858,-1.426 9.371,-1.426 6.858,0 12.53,2.699 17.012,8.098 4.481,5.399 6.722,12.748 6.722,22.053 0,9.303 -2.241,16.637 -6.722,22.003 C 21.901,56.091 16.128,58.775 9.066,58.775 6.417,58.775 3.395,57.416 0,54.7 L 0,0 Z m 43.088,29.133 c 0,-9.44 -2.445,-17.317 -7.334,-23.632 C 30.049,-1.291 21.832,-4.754 11.103,-4.89 l -28.216,0 0,1.834 2.241,0 c 2.512,0 4.278,0.882 5.297,2.649 0.746,1.222 1.121,3.7 1.121,7.435 l 0,43.597 c 0,4.142 -0.408,6.791 -1.223,7.946 -1.156,1.426 -2.888,2.14 -5.195,2.14 l -2.241,0 0,1.832 17.011,0 0,-4.379 c 5.16,2.918 10.9,4.379 17.215,4.379 7.401,0 14.328,-4.379 20.78,-13.14 3.463,-6.452 5.195,-13.208 5.195,-20.27"
             style="fill:#ffffff;fill-opacity:1;fill-rule:nonzero;stroke:none"
             id="path3368"
             inkscape:connector-curvature="0" /></g><g
           id="g3370"
           transform="translate(1070.3,426.946)"
           style="fill:#ffffff"><path
             d="m 0,0 0,-1.834 -28.827,0 0,1.834 2.343,0 c 2.784,0 4.821,0.815 6.112,2.445 0.815,1.085 1.222,3.632 1.222,7.639 l 0,43.597 c 0,3.395 -0.239,5.636 -0.713,6.724 -0.341,0.882 -1.019,1.594 -2.037,2.139 -1.427,0.815 -2.954,1.222 -4.584,1.222 l -2.343,0 0,1.833 28.827,0 0,-1.833 -2.445,0 c -2.785,0 -4.787,-0.814 -6.009,-2.444 -0.883,-1.088 -1.325,-3.634 -1.325,-7.641 l 0,-43.597 c 0,-3.396 0.237,-5.637 0.713,-6.723 C -8.727,2.546 -8.047,1.834 -7.028,1.222 -5.602,0.407 -4.075,0 -2.445,0 L 0,0 Z"
             style="fill:#ffffff;fill-opacity:1;fill-rule:nonzero;stroke:none"
             id="path3372"
             inkscape:connector-curvature="0" /></g><g
           id="g3374"
           transform="translate(1072.642,492.5454)"
           style="fill:#ffffff"><path
             d="m 0,0 18.336,0 36.772,-47.468 0,46.348 c 0.271,4.345 2.173,7.538 5.704,9.575 3.26,1.63 7.47,2.002 12.631,1.12 l 0,-1.833 -2.342,0 c -2.852,0 -4.89,-0.85 -6.112,-2.547 -0.749,-1.222 -1.12,-3.633 -1.12,-7.232 l 0,-66.516 -1.732,0 -43.495,54.293 0,-41.459 c 0,-4.143 0.473,-6.723 1.425,-7.742 1.223,-1.426 3.158,-2.138 5.806,-2.138 l 2.343,0 0,-1.834 -27.299,0 0,2.037 2.343,0 c 2.852,0 4.889,0.577 6.112,1.732 0.882,1.154 1.324,4.039 1.324,8.659 l 0,46.856 C 10.016,-6.384 9.303,-5.128 8.557,-4.38 7.334,-3.226 5.942,-2.513 4.38,-2.24 3.428,-1.97 1.969,-1.833 0,-1.833 L 0,0 Z"
             style="fill:#ffffff;fill-opacity:1;fill-rule:nonzero;stroke:none"
             id="path3376"
             inkscape:connector-curvature="0" /></g><g
           id="g3378"
           transform="translate(1184.3854,404.6378)"
           style="fill:#ffffff"><path
             d="m 0,0 c -3.804,0 -7.674,2.106 -11.612,6.316 l 1.019,0.713 c 1.9,-1.901 3.937,-2.886 6.111,-2.954 2.581,0 4.516,0.679 5.807,2.037 1.426,0.815 2.139,2.717 2.139,5.704 l 0,11.001 c -3.6,-1.562 -7.675,-2.342 -12.224,-2.342 -10.526,0 -18.676,4.176 -24.447,12.529 -4.347,6.247 -6.519,13.479 -6.519,21.697 0,5.907 1.222,11.577 3.666,17.011 2.92,6.451 6.893,11.442 11.919,14.973 4.21,2.852 9.234,4.279 15.075,4.279 5.501,0 9.846,-1.054 13.039,-3.158 1.561,-0.748 2.614,-1.121 3.158,-1.121 1.357,0.747 2.071,2.173 2.139,4.279 l 1.528,0 1.527,-21.289 -1.527,0 C 9.303,74.971 7.368,78.977 4.991,81.694 1.528,85.565 -2.886,87.5 -8.251,87.5 c -7.403,0 -13.039,-3.396 -16.909,-10.186 -3.192,-5.773 -4.788,-12.597 -4.788,-20.474 0,-6.453 1.07,-12.326 3.209,-17.623 2.14,-5.297 4.941,-9.185 8.404,-11.663 3.463,-2.48 6.687,-3.718 9.677,-3.718 2.104,0 4.159,0.322 6.163,0.968 2.002,0.645 3.988,1.579 5.959,2.801 l 0,22.511 c -0.204,1.359 -0.527,2.563 -0.968,3.617 -0.443,1.052 -1.019,1.816 -1.732,2.292 -0.712,0.474 -1.986,0.746 -3.819,0.815 l -2.242,0 0,1.935 23.327,0 0,-1.833 -1.019,0 c -2.241,0 -4.007,-1.258 -5.296,-3.77 l 0,-43.393 C 11.17,7.064 10.22,4.89 8.863,3.26 7.979,2.037 6.723,1.156 5.093,0.611 2.988,0.204 1.29,0 0,0"
             style="fill:#ffffff;fill-opacity:1;fill-rule:nonzero;stroke:none"
             id="path3380"
             inkscape:connector-curvature="0" /></g><g
           id="g3382"
           transform="translate(976.9233,217.7335)"
           style="fill:#ffffff"><path
             d="m 0,0 c 0,0 -30.898,-19.428 -38.728,-50.739 -7.83,-31.31 10.011,-63.086 10.011,-63.086 0,0 21.845,31.657 25.008,55.5 C -0.546,-34.483 -10.205,-24.379 0,0"
             style="fill:#ffffff;fill-opacity:1;fill-rule:nonzero;stroke:none"
             id="path3384"
             inkscape:connector-curvature="0" /></g><g
           id="g3386"
           transform="translate(987.1031,367.6554)"
           style="fill:#ffffff"><path
             d="m 0,0 c 0,0 -17.074,-69.605 -57.373,-105.124 -40.299,-35.519 -101.986,-65.333 -107.045,-145.576 0,0 184.336,49.18 164.418,250.7"
             style="fill:#ffffff;fill-opacity:1;fill-rule:nonzero;stroke:none"
             id="path3388"
             inkscape:connector-curvature="0" /></g><g
           id="g3390"
           transform="translate(1013.9717,217.8599)"
           style="fill:#ffffff"><path
             d="m 0,0 c 10.371,-24.309 0.781,-34.478 4.107,-58.299 3.326,-23.82 25.386,-55.327 25.386,-55.327 0,0 17.624,31.897 9.581,63.153 C 31.03,-19.216 0,0 0,0"
             style="fill:#ffffff;fill-opacity:1;fill-rule:nonzero;stroke:none"
             id="path3392"
             inkscape:connector-curvature="0" /></g><g
           id="g3394"
           transform="translate(1060.8584,262.979)"
           style="fill:#ffffff"><path
             d="M 0,0 C -40.54,35.243 -58.09,104.729 -58.09,104.729 -76.631,-96.922 108.035,-144.842 108.035,-144.842 102.429,-64.636 40.54,-35.243 0,0"
             style="fill:#ffffff;fill-opacity:1;fill-rule:nonzero;stroke:none"
             id="path3396"
             inkscape:connector-curvature="0" /></g><g
           id="g3398"
           transform="translate(996.116,21.8683)"
           style="fill:#ffffff"><path
             d="M 0,0 C 0,0 26.637,22.768 26.513,59.146 26.421,86.303 11.463,107.473 3.885,116.464 L 0,0 Z"
             style="fill:#ffffff;fill-opacity:1;fill-rule:nonzero;stroke:none"
             id="path3400"
             inkscape:connector-curvature="0" /></g><g
           id="g3402"
           transform="translate(969.2002,80.8314)"
           style="fill:#ffffff"><path
             d="M 0,0 C 0.124,-36.377 26.916,-58.963 26.916,-58.963 L 22.236,57.471 C 14.72,48.429 -0.093,27.157 0,0"
             style="fill:#ffffff;fill-opacity:1;fill-rule:nonzero;stroke:none"
             id="path3404"
             inkscape:connector-curvature="0" /></g><g
           id="g3406"
           transform="translate(1378.7019,186.4924)"
           style="fill:#ffffff"><path
             d="m 0,0 c -50.36,53.028 -154.782,83.197 -208.645,95.821 5.46,-29.095 28.839,-97.541 128.371,-110.404 90.647,-11.714 144.785,-52.537 144.785,-52.537 0,0 -4.019,114.472 -206.659,163.359 C -42.431,52.055 0,0 0,0"
             style="fill:#ffffff;fill-opacity:1;fill-rule:nonzero;stroke:none"
             id="path3408"
             inkscape:connector-curvature="0" /></g><g
           id="g3410"
           transform="translate(615.9326,186.4924)"
           style="fill:#ffffff"><path
             d="M 0,0 C 50.36,53.028 154.782,83.197 208.645,95.821 203.185,66.726 179.805,-1.72 80.273,-14.583 -10.373,-26.297 -64.511,-67.12 -64.511,-67.12 c 0,0 4.019,114.472 206.659,163.359 C 42.431,52.055 0,0 0,0"
             style="fill:#ffffff;fill-opacity:1;fill-rule:nonzero;stroke:none"
             id="path3412"
             inkscape:connector-curvature="0" /></g><g
           id="g3414"
           transform="translate(1532.6335,221.2355)"
           style="fill:#ffffff"><path
             d="m 0,0 c 0,0 15.247,18.732 4.921,47.882 -10.326,29.151 22.85,62.814 22.85,62.814 C 27.771,110.696 61.762,28.332 0,0"
             style="fill:#ffffff;fill-opacity:1;fill-rule:nonzero;stroke:none"
             id="path3416"
             inkscape:connector-curvature="0" /></g><g
           id="g3418"
           transform="translate(1589.6523,323.4167)"
           style="fill:#ffffff"><path
             d="m 0,0 c 0,0 10.401,-91.531 87.371,-111.086 0,0 5.691,35.657 -17.89,61.16 C 50.758,-29.678 36.527,-30.234 23.299,-22.051 9.036,-13.227 0,0 0,0"
             style="fill:#ffffff;fill-opacity:1;fill-rule:nonzero;stroke:none"
             id="path3420"
             inkscape:connector-curvature="0" /></g><g
           id="g3422"
           transform="translate(1642.491,303.642)"
           style="fill:#ffffff"><path
             d="M 0,0 C 0,0 19.929,-11.233 35.135,-2.08 50.342,7.073 53.671,22.467 53.671,22.467 53.671,22.467 9.153,34.116 0,0"
             style="fill:#ffffff;fill-opacity:1;fill-rule:nonzero;stroke:none"
             id="path3424"
             inkscape:connector-curvature="0" /></g><g
           id="g3426"
           transform="translate(1239.6798,378.8327)"
           style="fill:#ffffff"><path
             d="m 0,0 c 0,0 45.647,-7.738 82.499,21.751 36.851,29.49 93.63,33.213 93.63,33.213 C 176.129,54.964 40.489,76.582 0,0"
             style="fill:#ffffff;fill-opacity:1;fill-rule:nonzero;stroke:none"
             id="path3428"
             inkscape:connector-curvature="0" /></g><g
           id="g3430"
           transform="translate(1155.2698,319.5458)"
           style="fill:#ffffff"><path
             d="m 0,0 c -38.539,8.116 -65.868,4.989 -84.725,-1.56 11.019,-23.515 -22.587,-49.382 14.979,-31.268 85.043,41.008 167.772,2.893 167.772,2.893 0,0 -35.29,27.191 -94.299,43.968 -59.009,16.777 -114.548,4.05 -114.548,4.05 4.713,-1.693 8.689,-3.537 12.039,-5.492 C -34.366,21.384 0,0 0,0"
             style="fill:#ffffff;fill-opacity:1;fill-rule:nonzero;stroke:none"
             id="path3432"
             inkscape:connector-curvature="0" /></g><g
           id="g3434"
           transform="translate(1206.8973,341.1933)"
           style="fill:#ffffff"><path
             d="m 0,0 c 28.389,-18.077 42.584,-33.572 65.476,-38.505 44.739,-9.643 83.5,16.584 83.5,16.584 -68.844,-1.157 -79.933,21.116 -79.933,21.116 57.146,0 108.349,25.808 161.347,32.26 136.872,11.521 188.438,-68.667 188.438,-68.667 0,86.64 -102.283,102.451 -191.617,94.018 C 199.639,54.203 172.46,48.476 146.023,40.227 123.137,33.087 81.432,22.737 35.319,24.141 24.437,23.974 16.814,23.797 -0.136,27.679 -5.85,28.676 -11.575,29.898 -17.287,31.372 -101.968,47.804 -133.938,25.518 -133.938,25.518 -58.025,33.882 -2.751,1.728 0,0"
             style="fill:#ffffff;fill-opacity:1;fill-rule:nonzero;stroke:none"
             id="path3436"
             inkscape:connector-curvature="0" /></g><g
           id="g3438"
           transform="translate(462.0009,221.2355)"
           style="fill:#ffffff"><path
             d="m 0,0 c 0,0 -15.247,18.732 -4.921,47.882 10.326,29.151 -22.85,62.814 -22.85,62.814 0,0 -33.991,-82.364 27.771,-110.696"
             style="fill:#ffffff;fill-opacity:1;fill-rule:nonzero;stroke:none"
             id="path3440"
             inkscape:connector-curvature="0" /></g><g
           id="g3442"
           transform="translate(404.9821,323.4167)"
           style="fill:#ffffff"><path
             d="m 0,0 c 0,0 -10.401,-91.531 -87.371,-111.086 0,0 -5.691,35.657 17.89,61.16 18.723,20.248 32.954,19.692 46.182,27.875 C -9.036,-13.227 0,0 0,0"
             style="fill:#ffffff;fill-opacity:1;fill-rule:nonzero;stroke:none"
             id="path3444"
             inkscape:connector-curvature="0" /></g><g
           id="g3446"
           transform="translate(352.1435,303.642)"
           style="fill:#ffffff"><path
             d="M 0,0 C 0,0 -19.929,-11.233 -35.135,-2.08 -50.342,7.073 -53.671,22.467 -53.671,22.467 -53.671,22.467 -9.153,34.116 0,0"
             style="fill:#ffffff;fill-opacity:1;fill-rule:nonzero;stroke:none"
             id="path3448"
             inkscape:connector-curvature="0" /></g><g
           id="g3450"
           transform="translate(754.9547,378.8327)"
           style="fill:#ffffff"><path
             d="m 0,0 c 0,0 -45.647,-7.738 -82.499,21.751 -36.851,29.49 -93.63,33.213 -93.63,33.213 0,0 135.64,21.618 176.129,-54.964"
             style="fill:#ffffff;fill-opacity:1;fill-rule:nonzero;stroke:none"
             id="path3452"
             inkscape:connector-curvature="0" /></g><g
           id="g3454"
           transform="translate(839.3647,319.5458)"
           style="fill:#ffffff"><path
             d="m 0,0 c 38.539,8.116 65.868,4.989 84.725,-1.56 -11.019,-23.515 22.587,-49.382 -14.979,-31.268 -85.043,41.008 -167.772,2.893 -167.772,2.893 0,0 35.29,27.191 94.299,43.968 59.009,16.777 114.548,4.05 114.548,4.05 C 106.107,16.39 102.132,14.546 98.782,12.591 34.366,21.384 0,0 0,0"
             style="fill:#ffffff;fill-opacity:1;fill-rule:nonzero;stroke:none"
             id="path3456"
             inkscape:connector-curvature="0" /></g><g
           id="g3458"
           transform="translate(787.7371,341.1933)"
           style="fill:#ffffff"><path
             d="m 0,0 c -28.389,-18.077 -42.584,-33.572 -65.476,-38.505 -44.739,-9.643 -83.501,16.584 -83.501,16.584 68.845,-1.157 79.934,21.116 79.934,21.116 -57.146,0 -108.349,25.808 -161.347,32.26 -136.872,11.521 -188.438,-68.667 -188.438,-68.667 0,86.64 102.283,102.451 191.617,94.018 27.572,-2.603 54.751,-8.33 81.188,-16.579 22.885,-7.14 64.591,-17.49 110.704,-16.086 10.882,-0.167 18.505,-0.344 35.455,3.538 5.714,0.997 11.439,2.219 17.151,3.693 84.681,16.432 116.651,-5.854 116.651,-5.854 C 42.555,35.375 2.751,1.728 0,0"
             style="fill:#ffffff;fill-opacity:1;fill-rule:nonzero;stroke:none"
             id="path3460"
             inkscape:connector-curvature="0" /></g><g
           id="g3462"
           transform="translate(615.9326,1063.1124)"
           style="fill:#ffffff"><path
             d="M 0,0 C 50.36,-53.028 154.782,-83.197 208.645,-95.821 203.185,-66.726 179.805,1.72 80.273,14.583 -10.373,26.297 -64.511,67.12 -64.511,67.12 c 0,0 4.019,-114.472 206.659,-163.359 C 42.431,-52.055 0,0 0,0"
             style="fill:#ffffff;fill-opacity:1;fill-rule:nonzero;stroke:none"
             id="path3464"
             inkscape:connector-curvature="0" /></g><g
           id="g3466"
           transform="translate(1378.7019,1063.1124)"
           style="fill:#ffffff"><path
             d="m 0,0 c -50.36,-53.028 -154.782,-83.197 -208.645,-95.821 5.46,29.095 28.839,97.541 128.371,110.404 90.647,11.714 144.785,52.537 144.785,52.537 0,0 -4.019,-114.472 -206.659,-163.359 C -42.431,-52.055 0,0 0,0"
             style="fill:#ffffff;fill-opacity:1;fill-rule:nonzero;stroke:none"
             id="path3468"
             inkscape:connector-curvature="0" /></g><g
           id="g3470"
           transform="translate(462.0009,1028.3694)"
           style="fill:#ffffff"><path
             d="m 0,0 c 0,0 -15.247,-18.732 -4.921,-47.882 10.326,-29.151 -22.85,-62.814 -22.85,-62.814 0,0 -33.991,82.364 27.771,110.696"
             style="fill:#ffffff;fill-opacity:1;fill-rule:nonzero;stroke:none"
             id="path3472"
             inkscape:connector-curvature="0" /></g><g
           id="g3474"
           transform="translate(404.9821,926.1882)"
           style="fill:#ffffff"><path
             d="m 0,0 c 0,0 -10.401,91.531 -87.371,111.086 0,0 -5.691,-35.657 17.89,-61.16 C -50.758,29.678 -36.527,30.234 -23.299,22.051 -9.036,13.227 0,0 0,0"
             style="fill:#ffffff;fill-opacity:1;fill-rule:nonzero;stroke:none"
             id="path3476"
             inkscape:connector-curvature="0" /></g><g
           id="g3478"
           transform="translate(352.1435,945.9629)"
           style="fill:#ffffff"><path
             d="m 0,0 c 0,0 -19.929,11.233 -35.135,2.08 -15.207,-9.153 -18.536,-24.547 -18.536,-24.547 0,0 44.518,-11.649 53.671,22.467"
             style="fill:#ffffff;fill-opacity:1;fill-rule:nonzero;stroke:none"
             id="path3480"
             inkscape:connector-curvature="0" /></g><g
           id="g3482"
           transform="translate(754.9547,870.7722)"
           style="fill:#ffffff"><path
             d="m 0,0 c 0,0 -45.647,7.738 -82.499,-21.751 -36.851,-29.49 -93.63,-33.213 -93.63,-33.213 0,0 135.64,-21.617 176.129,54.964"
             style="fill:#ffffff;fill-opacity:1;fill-rule:nonzero;stroke:none"
             id="path3484"
             inkscape:connector-curvature="0" /></g><g
           id="g3486"
           transform="translate(1239.6798,870.7722)"
           style="fill:#ffffff"><path
             d="M 0,0 C 0,0 45.647,7.738 82.499,-21.751 119.35,-51.241 176.13,-54.964 176.13,-54.964 176.13,-54.964 40.489,-76.581 0,0"
             style="fill:#ffffff;fill-opacity:1;fill-rule:nonzero;stroke:none"
             id="path3488"
             inkscape:connector-curvature="0" /></g><g
           id="g3490"
           transform="translate(839.3647,930.0591)"
           style="fill:#ffffff"><path
             d="M 0,0 C 38.539,-8.116 65.868,-4.989 84.725,1.56 73.706,25.074 107.312,50.942 69.746,32.828 -15.297,-8.18 -98.026,29.935 -98.026,29.935 c 0,0 35.29,-27.191 94.299,-43.968 59.009,-16.777 114.548,-4.05 114.548,-4.05 -4.714,1.693 -8.689,3.537 -12.039,5.492 C 34.366,-21.384 0,0 0,0"
             style="fill:#ffffff;fill-opacity:1;fill-rule:nonzero;stroke:none"
             id="path3492"
             inkscape:connector-curvature="0" /></g><g
           id="g3494"
           transform="translate(787.7371,908.4116)"
           style="fill:#ffffff"><path
             d="m 0,0 c -28.389,18.077 -42.584,33.572 -65.476,38.505 -44.739,9.643 -83.501,-16.584 -83.501,-16.584 68.845,1.157 79.934,-21.116 79.934,-21.116 -57.146,0 -114.134,-25.808 -167.132,-32.26 -136.872,-11.521 -182.653,68.667 -182.653,68.667 0,-86.64 102.283,-102.451 191.617,-94.018 27.572,2.603 54.751,8.33 81.188,16.579 22.885,7.14 64.591,17.49 110.704,16.086 10.882,0.167 18.505,0.344 35.455,-3.538 5.714,-0.997 11.439,-2.219 17.151,-3.693 84.681,-16.432 116.651,5.854 116.651,5.854 C 45.629,-36.723 2.751,-1.728 0,0"
             style="fill:#ffffff;fill-opacity:1;fill-rule:nonzero;stroke:none"
             id="path3496"
             inkscape:connector-curvature="0" /></g><g
           id="g3498"
           transform="translate(1532.6335,1028.3694)"
           style="fill:#ffffff"><path
             d="m 0,0 c 0,0 15.247,-18.732 4.921,-47.882 -10.326,-29.151 22.85,-62.814 22.85,-62.814 0,0 33.991,82.364 -27.771,110.696"
             style="fill:#ffffff;fill-opacity:1;fill-rule:nonzero;stroke:none"
             id="path3500"
             inkscape:connector-curvature="0" /></g><g
           id="g3502"
           transform="translate(1589.6523,926.1882)"
           style="fill:#ffffff"><path
             d="m 0,0 c 0,0 10.401,91.531 87.371,111.086 0,0 5.691,-35.657 -17.89,-61.16 C 50.758,29.678 36.527,30.234 23.299,22.051 9.036,13.227 0,0 0,0"
             style="fill:#ffffff;fill-opacity:1;fill-rule:nonzero;stroke:none"
             id="path3504"
             inkscape:connector-curvature="0" /></g><g
           id="g3506"
           transform="translate(1642.491,945.9629)"
           style="fill:#ffffff"><path
             d="M 0,0 C 0,0 19.929,11.233 35.135,2.08 50.342,-7.073 53.671,-22.467 53.671,-22.467 53.671,-22.467 9.153,-34.116 0,0"
             style="fill:#ffffff;fill-opacity:1;fill-rule:nonzero;stroke:none"
             id="path3508"
             inkscape:connector-curvature="0" /></g><g
           id="g3510"
           transform="translate(1155.2698,930.0591)"
           style="fill:#ffffff"><path
             d="m 0,0 c -38.539,-8.116 -65.868,-4.989 -84.725,1.56 11.019,23.514 -22.587,49.382 14.979,31.268 85.043,-41.008 167.772,-2.893 167.772,-2.893 0,0 -35.29,-27.191 -94.299,-43.968 -59.009,-16.777 -114.548,-4.05 -114.548,-4.05 4.713,1.693 8.689,3.537 12.039,5.492 C -34.366,-21.384 0,0 0,0"
             style="fill:#ffffff;fill-opacity:1;fill-rule:nonzero;stroke:none"
             id="path3512"
             inkscape:connector-curvature="0" /></g><g
           id="g3514"
           transform="translate(1206.8973,908.4116)"
           style="fill:#ffffff"><path
             d="m 0,0 c 28.389,18.077 42.584,33.572 65.476,38.505 44.739,9.643 83.5,-16.584 83.5,-16.584 C 80.132,23.078 69.043,0.805 69.043,0.805 c 57.146,0 114.134,-25.808 167.132,-32.26 136.872,-11.521 182.653,68.667 182.653,68.667 0,-86.64 -102.283,-102.451 -191.617,-94.018 -27.572,2.603 -54.751,8.33 -81.188,16.579 -22.886,7.14 -64.591,17.49 -110.704,16.086 -10.882,0.167 -18.505,0.344 -35.455,-3.538 -5.714,-0.997 -11.439,-2.219 -17.151,-3.693 -84.681,-16.432 -116.651,5.854 -116.651,5.854 C -52.451,-33.039 -2.751,-1.728 0,0"
             style="fill:#ffffff;fill-opacity:1;fill-rule:nonzero;stroke:none"
             id="path3516"
             inkscape:connector-curvature="0" /></g><g
           id="g3518"
           transform="translate(1018.991,884.1539)"
           style="fill:#ffffff"><path
             d="m 0,0 c 0,8.379 6.793,15.172 15.172,15.172 8.379,0 15.171,-6.793 15.171,-15.172 0,-8.379 -6.792,-15.172 -15.171,-15.172 C 6.793,-15.172 0,-8.379 0,0"
             style="fill:#ffffff;fill-opacity:1;fill-rule:nonzero;stroke:none"
             id="path3520"
             inkscape:connector-curvature="0" /></g><g
           id="g3522"
           transform="translate(975.6434,884.1539)"
           style="fill:#ffffff"><path
             d="m 0,0 c 0,8.379 -6.793,15.172 -15.172,15.172 -8.379,0 -15.171,-6.793 -15.171,-15.172 0,-8.379 6.792,-15.172 15.171,-15.172 C -6.793,-15.172 0,-8.379 0,0"
             style="fill:#ffffff;fill-opacity:1;fill-rule:nonzero;stroke:none"
             id="path3524"
             inkscape:connector-curvature="0" /></g><g
           id="g3526"
           transform="translate(997.3173,735.2861)"
           style="fill:#ffffff"><path
             d="m 0,0 c 0,0 36.845,30.343 36.845,72.968 0,30.64 -19.037,50.08 -29.743,58.591 L 0,42.277 -7.102,131.559 C -17.808,123.048 -36.846,103.608 -36.846,72.968 -36.846,30.343 0,0 0,0"
             style="fill:#ffffff;fill-opacity:1;fill-rule:nonzero;stroke:none"
             id="path3528"
             inkscape:connector-curvature="0" /></g><g
           id="g3530"
           transform="translate(1013.0258,1227.5251)"
           style="fill:#ffffff"><path
             d="m 0,0 1.655,0 c 0.551,0 0.997,0.446 0.997,0.997 l 0,12.146 c 0,0.551 -0.446,0.998 -0.997,0.998 l -1.655,0 c -0.551,0 -0.997,-0.447 -0.997,-0.998 l 0,-12.146 C -0.997,0.446 -0.551,0 0,0"
             style="fill:#ffffff;fill-opacity:1;fill-rule:nonzero;stroke:none"
             id="path3532"
             inkscape:connector-curvature="0" /></g><g
           id="g3534"
           transform="translate(1022.8256,1242.8479)"
           style="fill:#ffffff"><path
             d="m 0,0 c 4.808,0 6.602,-4.88 11.625,-4.88 5.023,0 7.679,2.871 10.047,2.871 2.368,0 2.44,-6.243 2.44,-6.243 0,0 -0.072,-6.244 -2.44,-6.244 -2.368,0 -5.024,2.871 -10.047,2.871 -5.023,0 -6.817,-4.88 -11.625,-4.88 -7.248,0 -8.242,5.597 -8.242,5.597 l 0,2.656 0,2.655 C -8.242,-5.597 -7.248,0 0,0"
             style="fill:#ffffff;fill-opacity:1;fill-rule:nonzero;stroke:none"
             id="path3536"
             inkscape:connector-curvature="0" /></g><g
           id="g3538"
           transform="translate(1045.8762,1224.3663)"
           style="fill:#ffffff"><path
             d="m 0,0 3.32,0 c 1.101,0 2.001,0.9 2.001,2 l 0,16.458 c 0,1.1 -0.9,2 -2.001,2 l -3.32,0 c -1.1,0 -2,-0.9 -2,-2 L -2,2 C -2,0.9 -1.1,0 0,0"
             style="fill:#ffffff;fill-opacity:1;fill-rule:nonzero;stroke:none"
             id="path3540"
             inkscape:connector-curvature="0" /></g><g
           id="g3542"
           transform="translate(1058.2444,1236.9465)"
           style="fill:#ffffff"><path
             d="m 0,0 c 0.684,-0.684 1.711,-0.091 2.258,0.399 0.547,0.491 1.779,1.927 3.626,1.927 1.848,0 4.311,-0.802 4.311,-4.677 0,-3.875 -2.463,-4.677 -4.311,-4.677 -1.847,0 -3.079,1.436 -3.626,1.927 C 1.711,-4.611 0.684,-4.018 0,-4.702 l -3.763,-3.763 0,6.114 0,6.114 c 0,0 2.417,-2.417 3.763,-3.763"
             style="fill:#ffffff;fill-opacity:1;fill-rule:nonzero;stroke:none"
             id="path3544"
             inkscape:connector-curvature="0" /></g><g
           id="g3546"
           transform="translate(1072.9087,1103.9767)"
           style="fill:#ffffff"><path
             d="m 0,0 c 0.966,2.21 23.691,54.423 25.154,79.112 1.122,18.934 -16.995,23.497 -22.574,24.444 -9.23,1.568 -19.092,5.441 -19.092,11.613 l 0,23.489 -3.831,-3.659 0,-19.83 c 0,-10.476 15.582,-14.252 22.281,-15.39 C 8.071,98.737 22.237,94.661 21.329,79.339 19.906,55.326 -3.277,2.07 -3.511,1.535 L 0,0 Z"
             style="fill:#ffffff;fill-opacity:1;fill-rule:nonzero;stroke:none"
             id="path3548"
             inkscape:connector-curvature="0" /></g><g
           id="g3550"
           transform="translate(985.9907,1182.1008)"
           style="fill:#ffffff"><path
             d="m 0,0 0,1.847 c 0,3.968 3.216,7.185 7.184,7.185 l 3.353,0 3.353,0 c 3.967,0 7.184,-3.217 7.184,-7.185 L 21.074,0 10.537,0 0,0 Z"
             style="fill:#ffffff;fill-opacity:1;fill-rule:nonzero;stroke:none"
             id="path3552"
             inkscape:connector-curvature="0" /></g><g
           id="g3554"
           transform="translate(996.5277,1013.3326)"
           style="fill:#ffffff"><path
             d="m 0,0 c 25.303,0 47.256,5.553 56.79,8.378 l 0,-7.694 c 0,0 -22.442,-10.126 -56.79,-10.126 -34.348,0 -56.79,10.126 -56.79,10.126 l 0,7.694 C -47.256,5.553 -25.303,0 0,0"
             style="fill:#ffffff;fill-opacity:1;fill-rule:nonzero;stroke:none"
             id="path3556"
             inkscape:connector-curvature="0" /></g><g
           id="g3558"
           transform="translate(996.5277,1243.864)"
           style="fill:#ffffff"><path
             d="m 0,0 c 6.288,0 9.779,-1.881 12.576,-4.689 l 0,-9.159 C 9.779,-16.656 6.288,-18.537 0,-18.537 c -6.288,0 -9.779,1.881 -12.576,4.689 l 0,9.159 C -9.779,-1.881 -6.288,0 0,0"
             style="fill:#ffffff;fill-opacity:1;fill-rule:nonzero;stroke:none"
             id="path3560"
             inkscape:connector-curvature="0" /></g><g
           id="g3562"
           transform="translate(980.0296,1227.5251)"
           style="fill:#ffffff"><path
             d="m 0,0 -1.655,0 c -0.551,0 -0.997,0.446 -0.997,0.997 l 0,12.146 c 0,0.551 0.446,0.998 0.997,0.998 l 1.655,0 c 0.551,0 0.997,-0.447 0.997,-0.998 l 0,-12.146 C 0.997,0.446 0.551,0 0,0"
             style="fill:#ffffff;fill-opacity:1;fill-rule:nonzero;stroke:none"
             id="path3564"
             inkscape:connector-curvature="0" /></g><g
           id="g3566"
           transform="translate(970.2298,1242.8479)"
           style="fill:#ffffff"><path
             d="m 0,0 c -4.808,0 -6.602,-4.88 -11.625,-4.88 -5.023,0 -7.679,2.871 -10.047,2.871 -2.368,0 -2.44,-6.243 -2.44,-6.243 0,0 0.072,-6.244 2.44,-6.244 2.368,0 5.024,2.871 10.047,2.871 5.023,0 6.817,-4.88 11.625,-4.88 7.248,0 8.242,5.597 8.242,5.597 l 0,2.656 0,2.655 C 8.242,-5.597 7.248,0 0,0"
             style="fill:#ffffff;fill-opacity:1;fill-rule:nonzero;stroke:none"
             id="path3568"
             inkscape:connector-curvature="0" /></g><g
           id="g3570"
           transform="translate(947.1792,1224.3663)"
           style="fill:#ffffff"><path
             d="m 0,0 -3.32,0 c -1.1,0 -2.001,0.9 -2.001,2 l 0,16.458 c 0,1.1 0.901,2 2.001,2 l 3.32,0 c 1.1,0 2,-0.9 2,-2 L 2,2 C 2,0.9 1.1,0 0,0"
             style="fill:#ffffff;fill-opacity:1;fill-rule:nonzero;stroke:none"
             id="path3572"
             inkscape:connector-curvature="0" /></g><g
           id="g3574"
           transform="translate(934.811,1236.9465)"
           style="fill:#ffffff"><path
             d="m 0,0 c -0.684,-0.684 -1.711,-0.091 -2.258,0.399 -0.547,0.491 -1.779,1.927 -3.626,1.927 -1.848,0 -4.311,-0.802 -4.311,-4.677 0,-3.875 2.463,-4.677 4.311,-4.677 1.847,0 3.079,1.436 3.626,1.927 0.547,0.49 1.574,1.083 2.258,0.399 1.346,-1.346 3.763,-3.763 3.763,-3.763 l 0,6.114 0,6.114 C 3.763,3.763 1.346,1.346 0,0"
             style="fill:#ffffff;fill-opacity:1;fill-rule:nonzero;stroke:none"
             id="path3576"
             inkscape:connector-curvature="0" /></g><g
           id="g3578"
           transform="translate(920.1468,1103.9767)"
           style="fill:#ffffff"><path
             d="m 0,0 3.511,1.535 c -0.234,0.535 -23.417,53.795 -24.84,77.804 -0.908,15.322 13.258,19.398 19.391,20.44 6.699,1.138 22.281,4.914 22.281,15.39 l 0,19.83 -3.831,3.659 0,-23.489 c 0,-6.172 -9.862,-10.045 -19.092,-11.613 -5.579,-0.947 -23.696,-5.51 -22.574,-24.444 C -23.691,54.423 -0.966,2.21 0,0"
             style="fill:#ffffff;fill-opacity:1;fill-rule:nonzero;stroke:none"
             id="path3580"
             inkscape:connector-curvature="0" /></g><g
           id="g3582"
           transform="translate(1089.1711,1100.6392)"
           style="fill:#ffffff"><path
             d="m 0,0 c 0,0 0.467,20.355 17.655,40.976 11.373,13.645 18.819,22.148 18.819,22.148 l 0.792,-8.621 17.653,-4.105 c 0,0 -19.487,-0.83 -26.274,-25.756 -6.911,-25.378 15.794,-67.04 -36.171,-72.811 l 6.158,8.211 c 0,0 13,13.958 1.368,39.958"
             style="fill:#ffffff;fill-opacity:1;fill-rule:nonzero;stroke:none"
             id="path3584"
             inkscape:connector-curvature="0" /></g><g
           id="g3586"
           transform="translate(1091.7063,1077.1407)"
           style="fill:#ffffff"><path
             d="M 0,0 0.047,1.629 C 0.037,1.078 0.021,0.535 0,0"
             style="fill:#ffffff;fill-opacity:1;fill-rule:nonzero;stroke:none"
             id="path3588"
             inkscape:connector-curvature="0" /></g><g
           id="g3590"
           transform="translate(923.453,1044.2594)"
           style="fill:#ffffff"><path
             d="m 0,0 33.481,-20.344 -19.455,4.218 c 0,0 1.095,5.27 -14.026,16.126 m -22.169,35.853 c 0,-22.853 9.853,-32.021 20.253,-39.548 9.226,-6.676 13.137,-15.6 13.137,-15.6 0,0 1.81,-0.647 5.063,-1.611 9.534,-2.826 31.487,-8.379 56.791,-8.379 25.303,0 47.256,5.553 56.79,8.379 3.253,0.964 5.063,1.611 5.063,1.611 0,0 1.976,4.502 6.424,9.502 -18.661,-3.29 -37.872,-2.316 -37.872,-2.316 29.525,1.798 44.777,9.374 51.225,13.707 4.408,4 8.279,8.885 10.756,15.766 -0.326,-0.325 -0.694,-0.642 -1.111,-0.943 -3.421,-2.463 -16.285,-2.28 -16.285,-2.28 15.111,3.417 19.235,10.458 19.348,10.656 l 0.002,0.008 c -21.517,-8.308 -54.199,-6.65 -54.199,-6.65 41.523,2.527 54.814,16.482 55.09,16.776 0.003,0.308 0.012,0.609 0.012,0.922 0,17.619 -16.225,31.942 -23.658,37.579 l -50.785,2.585 -20.8,0 -20.801,0 L 1.49,73.432 C -5.943,67.795 -22.169,53.472 -22.169,35.853"
             style="fill:#ffffff;fill-opacity:1;fill-rule:nonzero;stroke:none"
             id="path3592"
             inkscape:connector-curvature="0" /></g><g
           id="g3594"
           transform="translate(928.5847,1131.829)"
           style="fill:#ffffff"><path
             d="m 0,0 0,1.608 c 0,3.269 2.65,5.918 5.918,5.918 l 1.335,0 C 21.564,23.295 39.936,29.039 52.7,31.095 l 11.754,1.063 -0.29,0.027 0,0 -6.758,0.611 0,4.061 c 6.934,4.288 1.46,10.172 1.46,10.172 l 9.077,0 9.077,0 c 0,0 -5.473,-5.884 1.46,-10.172 l 0,-4.061 -6.758,-0.611 0.001,0 -0.29,-0.027 11.753,-1.063 c 10.84,-1.746 25.724,-6.157 38.732,-17.104 l -14.701,-1.128 14.506,-0.821 -23.674,-1.916 c 0,0 23.948,-0.684 24.358,-0.684 0.411,0 -43.927,-1.916 -43.927,-1.916 l 50.153,0 1.335,0 c 3.246,0 5.879,-2.615 5.915,-5.853 L 89.291,0 l 46.595,0 5.132,0 0,-5.611 c 0,-1.624 -1.317,-2.942 -2.942,-2.942 l -70.133,0 -70.133,0 c -1.624,0 -2.942,1.318 -2.942,2.942 L -5.132,0 0,0 Z"
             style="fill:#ffffff;fill-opacity:1;fill-rule:nonzero;stroke:none"
             id="path3596"
             inkscape:connector-curvature="0" /></g><g
           id="g3598"
           transform="translate(994.6298,1350.1074)"
           style="fill:#ffffff"><path
             d="m 0,0 c -9.728,9.28 -7.287,15.958 -13.624,26.424 -6.337,10.466 -22.973,20.763 -22.973,20.763 0,0 -1.834,-18.447 8.201,-31.441 C -18.361,2.752 0,0 0,0"
             style="fill:#ffffff;fill-opacity:1;fill-rule:nonzero;stroke:none"
             id="path3600"
             inkscape:connector-curvature="0" /></g><g
           id="g3602"
           transform="translate(1000.0047,1350.1074)"
           style="fill:#ffffff"><path
             d="m 0,0 c 9.728,9.28 7.287,15.958 13.624,26.424 6.337,10.466 22.973,20.763 22.973,20.763 0,0 1.834,-18.447 -8.201,-31.441 C 18.361,2.752 0,0 0,0"
             style="fill:#ffffff;fill-opacity:1;fill-rule:nonzero;stroke:none"
             id="path3604"
             inkscape:connector-curvature="0" /></g><g
           id="g3606"
           transform="translate(1001.7359,1267.4244)"
           style="fill:#ffffff"><path
             d="m 0,0 c 0,0 8.686,35.408 29.185,53.476 20.5,18.068 51.879,33.234 54.453,74.053 0,0 -93.77,-25.017 -83.638,-127.529"
             style="fill:#ffffff;fill-opacity:1;fill-rule:nonzero;stroke:none"
             id="path3608"
             inkscape:connector-curvature="0" /></g><g
           id="g3610"
           transform="translate(964.2172,1320.6724)"
           style="fill:#ffffff"><path
             d="M 0,0 C 20.622,-17.928 29.55,-53.275 29.55,-53.275 38.982,49.303 -54.956,73.68 -54.956,73.68 -52.105,32.88 -20.622,17.928 0,0"
             style="fill:#ffffff;fill-opacity:1;fill-rule:nonzero;stroke:none"
             id="path3612"
             inkscape:connector-curvature="0" /></g><g
           id="g3614"
           transform="translate(997.1802,1453.3417)"
           style="fill:#ffffff"><path
             d="m 0,0 c 0,0 -18.133,-15.499 -18.049,-40.263 0.063,-18.487 10.246,-32.898 15.404,-39.019 L 0,0 Z"
             style="fill:#ffffff;fill-opacity:1;fill-rule:nonzero;stroke:none"
             id="path3616"
             inkscape:connector-curvature="0" /></g><g
           id="g3618"
           transform="translate(1015.5029,1413.2031)"
           style="fill:#ffffff"><path
             d="m 0,0 c -0.085,24.764 -18.323,40.139 -18.323,40.139 l 3.186,-79.262 C -10.02,-32.968 0.063,-18.487 0,0"
             style="fill:#ffffff;fill-opacity:1;fill-rule:nonzero;stroke:none"
             id="path3620"
             inkscape:connector-curvature="0" /></g><g
           id="g3622"
           transform="translate(798.0555,1234.4923)"
           style="fill:#ffffff"><path
             d="M 0,0 C -32.445,99.778 57.172,82.589 57.172,82.589 7.177,52.45 0,0 0,0"
             style="fill:#ffffff;fill-opacity:1;fill-rule:nonzero;stroke:none"
             id="path3624"
             inkscape:connector-curvature="0" /></g><g
           id="g3626"
           transform="translate(829.6564,1154.2205)"
           style="fill:#ffffff"><path
             d="m 0,0 c 0,21.738 10.064,36.791 24.156,48.728 24.538,20.787 61.881,32.646 79.2,53.204 17.788,21.116 23.843,39.243 8.068,67.78 l 0,0 c 0.794,-2.47 1.089,-5.025 0.86,-7.687 0.407,-11.256 -2.21,-32.215 -24.747,-44.473 C 63.568,104.516 41.328,114.42 21.796,97.198 19.336,94.949 17.145,92.555 15.211,90.151 11.108,84.925 7.137,78.163 3.311,69.329 c 0,0 -1.233,37.046 22.071,66.407 0,0 -73.938,-47.452 -54.626,-135.184 0,0 -9.38,44.693 -47.452,51.866 0,0 -40.228,-205.016 230.168,-217.374 C 144.181,-164.431 0,-153.808 0,0"
             style="fill:#ffffff;fill-opacity:1;fill-rule:nonzero;stroke:none"
             id="path3628"
             inkscape:connector-curvature="0" /></g><g
           id="g3630"
           transform="translate(832.967,1223.5498)"
           style="fill:#ffffff"><path
             d="M 0,0 C 3.827,8.833 7.797,15.596 11.9,20.821 3.597,10.504 0,0 0,0"
             style="fill:#ffffff;fill-opacity:1;fill-rule:nonzero;stroke:none"
             id="path3632"
             inkscape:connector-curvature="0" /></g><g
           id="g3634"
           transform="translate(1196.579,1234.4923)"
           style="fill:#ffffff"><path
             d="M 0,0 C 32.445,99.778 -57.172,82.589 -57.172,82.589 -7.177,52.45 0,0 0,0"
             style="fill:#ffffff;fill-opacity:1;fill-rule:nonzero;stroke:none"
             id="path3636"
             inkscape:connector-curvature="0" /></g><g
           id="g3638"
           transform="translate(1164.978,1154.2205)"
           style="fill:#ffffff"><path
             d="m 0,0 c 0,21.738 -10.064,36.791 -24.156,48.728 -24.538,20.787 -61.881,32.646 -79.199,53.204 -17.789,21.116 -23.844,39.243 -8.069,67.78 l 0,0 c -0.794,-2.47 -1.089,-5.025 -0.86,-7.687 -0.407,-11.256 2.21,-32.215 24.747,-44.473 23.969,-13.036 46.209,-3.132 65.741,-20.354 2.46,-2.249 4.651,-4.643 6.586,-7.047 4.102,-5.226 8.073,-11.988 11.899,-20.822 0,0 1.233,37.046 -22.071,66.407 0,0 73.938,-47.452 54.626,-135.184 0,0 9.38,44.693 47.452,51.866 0,0 40.228,-205.016 -230.168,-217.374 C -144.181,-164.431 0,-153.808 0,0"
             style="fill:#ffffff;fill-opacity:1;fill-rule:nonzero;stroke:none"
             id="path3640"
             inkscape:connector-curvature="0" /></g><g
           id="g3642"
           transform="translate(1161.6674,1223.5498)"
           style="fill:#ffffff"><path
             d="M 0,0 C -3.827,8.833 -7.797,15.596 -11.9,20.821 -3.597,10.504 0,0 0,0"
             style="fill:#ffffff;fill-opacity:1;fill-rule:nonzero;stroke:none"
             id="path3644"
             inkscape:connector-curvature="0" /></g><g
           id="g3646"
           transform="translate(836.5706,824.7671)"
           style="fill:#ffffff"><path
             d="M 0,0 C 53.982,-4.611 85.627,7.247 100.268,15.223 91.993,0.885 64.868,-31.319 -6.81,-15.516 c -21.265,5.71 -32.047,-9.587 -32.047,-9.587 0,0 13.86,90.002 138.288,48.089 C 68.662,4.996 0,0 0,0"
             style="fill:#ffffff;fill-opacity:1;fill-rule:nonzero;stroke:none"
             id="path3648"
             inkscape:connector-curvature="0" /></g><g
           id="g3650"
           transform="translate(1158.0638,824.7671)"
           style="fill:#ffffff"><path
             d="m 0,0 c -53.982,-4.611 -85.627,7.247 -100.268,15.223 8.275,-14.338 35.4,-46.542 107.078,-30.739 21.265,5.71 32.047,-9.587 32.047,-9.587 0,0 -13.86,90.002 -138.288,48.089 C -68.662,4.996 0,0 0,0"
             style="fill:#ffffff;fill-opacity:1;fill-rule:nonzero;stroke:none"
             id="path3652"
             inkscape:connector-curvature="0" /></g><g
           id="g3654"
           transform="translate(997.3172,972.5429)"
           style="fill:#ffffff"><path
             d="m 0,0 c 0,0 -23.37,-19.246 -23.37,-46.282 0,-19.434 12.075,-31.764 18.865,-37.162 L 0,-26.815 4.504,-83.444 c 6.791,5.398 18.866,17.728 18.866,37.162 C 23.37,-19.246 0,0 0,0"
             style="fill:#ffffff;fill-opacity:1;fill-rule:nonzero;stroke:none"
             id="path3656"
             inkscape:connector-curvature="0" /></g><g
           id="g3658"
           transform="translate(1101.6842,755.0051)"
           style="fill:#ffffff"><path
             d="m 0,0 c 0,0 2.483,25.659 -13.795,41.937 -11.701,11.7 -26.395,11.854 -33.734,11.016 L -16.145,16.145 -52.953,47.529 C -53.791,40.19 -53.637,25.496 -41.937,13.795 -25.659,-2.483 0,0 0,0"
             style="fill:#ffffff;fill-opacity:1;fill-rule:nonzero;stroke:none"
             id="path3660"
             inkscape:connector-curvature="0" /></g><g
           id="g3662"
           transform="translate(892.9503,755.005)"
           style="fill:#ffffff"><path
             d="m 0,0 c 0,0 25.659,-2.483 41.937,13.795 11.7,11.701 11.854,26.395 11.016,33.734 L 16.145,16.145 47.529,52.953 C 40.19,53.791 25.496,53.637 13.795,41.937 -2.483,25.659 0,0 0,0"
             style="fill:#ffffff;fill-opacity:1;fill-rule:nonzero;stroke:none"
             id="path3664"
             inkscape:connector-curvature="0" /></g><g
           id="g3666"
           transform="translate(1432.8495,936.5385)"
           style="fill:#ffffff"><path
             d="M 0,0 C -16.727,3.71 -43.639,8.534 -74.961,-21.031 -11.934,-54.043 30.894,1.395 30.894,1.395 30.894,1.395 16.727,-3.71 0,0"
             style="fill:#ffffff;fill-opacity:1;fill-rule:nonzero;stroke:none"
             id="path3668"
             inkscape:connector-curvature="0" /></g><g
           id="g3670"
           transform="translate(561.785,936.5385)"
           style="fill:#ffffff"><path
             d="M 0,0 C 16.727,3.71 43.638,8.534 74.961,-21.031 11.934,-54.043 -30.894,1.395 -30.894,1.395 -30.894,1.395 -16.727,-3.71 0,0"
             style="fill:#ffffff;fill-opacity:1;fill-rule:nonzero;stroke:none"
             id="path3672"
             inkscape:connector-curvature="0" /></g><g
           id="g3674"
           transform="translate(1411.4711,323.5621)"
           style="fill:#ffffff"><path
             d="M 0,0 C -16.727,-3.71 -43.638,-8.534 -74.961,21.031 -11.934,54.043 30.894,-1.395 30.894,-1.395 30.894,-1.395 16.727,3.71 0,0"
             style="fill:#ffffff;fill-opacity:1;fill-rule:nonzero;stroke:none"
             id="path3676"
             inkscape:connector-curvature="0" /></g><g
           id="g3678"
           transform="translate(540.4067,323.5621)"
           style="fill:#ffffff"><path
             d="M 0,0 C 16.727,-3.71 43.638,-8.534 74.961,21.031 11.934,54.043 -30.894,-1.395 -30.894,-1.395 c 0,0 14.167,5.105 30.894,1.395"
             style="fill:#ffffff;fill-opacity:1;fill-rule:nonzero;stroke:none"
             id="path3680"
             inkscape:connector-curvature="0" /></g><g
           id="g3682"
           transform="translate(1826.6484,763.0823)"
           style="fill:#ffffff"><path
             d="m 0,0 c 27.535,-13.603 39.404,-28.639 44.165,-36.804 0.193,9.382 -3.513,32.961 -42.915,46.328 -11.989,3.47 -12.73,14.053 -12.73,14.053 0,0 -19.686,-47.719 52.961,-63.9 C 31.836,-22.57 0,0 0,0"
             style="fill:#ffffff;fill-opacity:1;fill-rule:nonzero;stroke:none"
             id="path3684"
             inkscape:connector-curvature="0" /></g><g
           id="g3686"
           transform="translate(1611.6818,489.6411)"
           style="fill:#ffffff"><path
             d="m 0,0 c 0,0 8.582,-6.615 21.532,-1.638 12.951,4.978 28.442,-9.5 28.442,-9.5 0,0 -36.534,-16.223 -49.974,11.138"
             style="fill:#ffffff;fill-opacity:1;fill-rule:nonzero;stroke:none"
             id="path3688"
             inkscape:connector-curvature="0" /></g><g
           id="g3690"
           transform="translate(1653.2223,494.6173)"
           style="fill:#ffffff"><path
             d="M 0,0 C -4.935,8.737 -0.168,20.822 -0.168,20.822 16.637,16.345 12.49,-10.283 12.49,-10.283 12.49,-10.283 4.934,-8.737 0,0"
             style="fill:#ffffff;fill-opacity:1;fill-rule:nonzero;stroke:none"
             id="path3692"
             inkscape:connector-curvature="0" /></g><g
           id="g3694"
           transform="translate(116.4165,553.4017)"
           style="fill:#ffffff"><path
             d="m 0,0 c 0,-9.536 7.152,-14.569 12.715,-14.569 l 7.417,0 0,-7.947 -59.866,0 0,7.947 7.417,0 c 8.477,0 12.98,6.357 12.98,14.569 l 0,137.744 c 0,7.417 -5.827,11.391 -12.98,11.391 l -7.682,0 0,7.682 60.131,0 0,-7.682 -8.742,0 C 4.768,149.135 0,143.837 0,137.744 L 0,0 Z"
             style="fill:#ffffff;fill-opacity:1;fill-rule:nonzero;stroke:none"
             id="path3696"
             inkscape:connector-curvature="0" /></g><g
           id="g3698"
           transform="translate(414.481,530.8858)"
           style="fill:#ffffff"><path
             d="m 0,0 -57.217,0 0,7.947 2.914,0 c 7.682,0 9.271,6.887 9.271,11.92 0,1.589 -1.854,20.927 -3.973,42.648 -2.649,28.608 -6.357,66.753 -7.417,79.733 0,2.913 0,7.681 -0.265,7.681 -1.059,0 -9.006,-19.337 -20.661,-48.475 C -86.885,77.879 -99.599,45.562 -114.963,12.185 -119.467,2.384 -125.824,0 -132.976,0 c -4.238,0 -7.417,2.384 -7.417,3.709 0.795,1.589 1.59,4.238 1.59,9.271 0,12.45 -28.609,72.845 -38.94,97.215 -12.714,30.198 -16.953,40.264 -17.748,40.264 -1.589,0 -10.595,-122.115 -10.595,-127.413 0,-9.272 2.383,-15.099 9.536,-15.099 l 2.913,0 0,-7.947 -54.568,0 0,7.947 4.768,0 c 14.04,0 19.603,11.39 20.133,18.012 l 10.86,133.242 c -0.265,6.622 -3.179,12.45 -13.51,12.45 l -9.535,0 0,7.682 29.667,0 c 15.629,0 21.987,-4.768 29.139,-22.516 17.747,-43.443 34.7,-79.468 52.713,-125.825 19.603,45.562 32.847,82.912 48.476,120.527 2.648,6.622 11.655,27.814 31.522,27.814 l 29.668,0 0,-7.682 -9.006,0 c -8.741,0 -14.569,-3.709 -14.569,-11.391 0.265,-4.503 1.589,-22.515 12.979,-133.241 1.325,-11.92 9.537,-19.072 18.808,-19.072 L 0,7.947 0,0 Z"
             style="fill:#ffffff;fill-opacity:1;fill-rule:nonzero;stroke:none"
             id="path3700"
             inkscape:connector-curvature="0" /></g><g
           id="g3702"
           transform="translate(682.875,530.8858)"
           style="fill:#ffffff"><path
             d="m 0,0 -57.217,0 0,7.947 2.915,0 c 7.681,0 9.27,6.887 9.27,11.92 0,1.589 -1.854,20.927 -3.973,42.648 -2.649,28.608 -6.357,66.753 -7.417,79.733 0,2.913 0,7.681 -0.265,7.681 -1.059,0 -9.006,-19.337 -20.661,-48.475 C -86.885,77.879 -99.599,45.562 -114.963,12.185 -119.467,2.384 -125.824,0 -132.976,0 c -4.238,0 -7.417,2.384 -7.417,3.709 0.795,1.589 1.59,4.238 1.59,9.271 0,12.45 -28.609,72.845 -38.94,97.215 -12.714,30.198 -16.953,40.264 -17.748,40.264 -1.59,0 -10.595,-122.115 -10.595,-127.413 0,-9.272 2.383,-15.099 9.536,-15.099 l 2.913,0 0,-7.947 -54.568,0 0,7.947 4.768,0 c 14.04,0 19.603,11.39 20.133,18.012 l 10.86,133.242 c -0.265,6.622 -3.179,12.45 -13.51,12.45 l -9.535,0 0,7.682 29.667,0 c 15.629,0 21.987,-4.768 29.139,-22.516 17.747,-43.443 34.7,-79.468 52.713,-125.825 19.603,45.562 32.847,82.912 48.476,120.527 2.648,6.622 11.655,27.814 31.523,27.814 l 29.667,0 0,-7.682 -9.006,0 c -8.741,0 -14.569,-3.709 -14.569,-11.391 0.265,-4.503 1.589,-22.515 12.979,-133.241 1.325,-11.92 9.537,-19.072 18.808,-19.072 L 0,7.947 0,0 Z"
             style="fill:#ffffff;fill-opacity:1;fill-rule:nonzero;stroke:none"
             id="path3704"
             inkscape:connector-curvature="0" /></g><g
           id="g3706"
           transform="translate(800.0157,539.6272)"
           style="fill:#ffffff"><path
             d="m 0,0 c 41.324,0 65.959,35.496 65.959,80.263 0,45.296 -23.84,81.587 -67.813,81.587 -45.561,0 -64.899,-41.059 -65.429,-81.587 C -67.283,37.88 -42.912,0.265 0,0 m -88.739,80.263 c 0,54.038 32.317,94.037 87.415,94.037 58.806,0 88.739,-42.118 88.739,-94.037 0,-50.065 -31.787,-93.508 -87.945,-93.508 -50.065,0 -88.209,41.853 -88.209,93.508"
             style="fill:#ffffff;fill-opacity:1;fill-rule:nonzero;stroke:none"
             id="path3708"
             inkscape:connector-curvature="0" /></g><g
           id="g3710"
           transform="translate(1001.6565,529.0316)"
           style="fill:#ffffff"><path
             d="m 0,0 c -22.516,0 -34.966,6.357 -34.966,15.893 0,10.066 11.92,10.066 11.92,10.066 0,0 3.708,-12.714 25.694,-12.714 38.41,0 53.774,42.118 53.774,79.997 0,27.549 -12.45,78.409 -67.018,78.409 -5.563,0 -24.636,0 -36.82,-5.828 l 0,-132.447 c 0,-10.86 -2.649,-31.522 -24.635,-31.522 l -15.629,0 0,7.947 5.828,0 c 9.801,0 15.099,9.006 15.099,16.953 l 0,132.182 c 0,8.211 -2.915,14.569 -12.45,14.569 l -8.477,0 0,7.682 25.43,0 c 17.748,0 35.231,3.708 54.303,3.708 77.349,0 85.56,-65.163 85.56,-91.653 C 77.613,58.276 60.13,0 0,0"
             style="fill:#ffffff;fill-opacity:1;fill-rule:nonzero;stroke:none"
             id="path3712"
             inkscape:connector-curvature="0" /></g><g
           id="g3714"
           transform="translate(1246.739,686.6429)"
           style="fill:#ffffff"><path
             d="m 0,0 c 0,-9.801 -6.887,-20.661 -15.629,-20.661 0,23.84 -8.476,34.171 -38.41,34.171 -17.218,0 -41.058,-1.59 -41.058,-12.98 l 0,-55.628 45.297,0 c 13.245,0 15.364,-6.092 15.364,-10.066 0,-7.681 -9.536,-15.364 -16.953,-15.364 0,7.153 -5.033,11.921 -16.953,11.921 l -26.755,0 0,-65.429 c 0,-9.536 25.695,-9.801 44.238,-9.801 34.7,0 43.707,26.225 43.707,30.728 7.682,0 14.304,-7.417 14.304,-15.364 0,-22.781 -26.489,-27.284 -52.184,-27.284 l -90.593,0 0,9.536 8.742,0 c 5.562,0 12.714,3.444 12.714,11.92 l 0,137.745 c 0,4.768 -1.854,12.45 -12.714,12.45 l -8.213,0 0,7.682 37.616,0 c 12.979,0 50.594,1.589 64.103,1.589 C -5.828,25.165 -0.265,18.278 0,0"
             style="fill:#ffffff;fill-opacity:1;fill-rule:nonzero;stroke:none"
             id="path3716"
             inkscape:connector-curvature="0" /></g><g
           id="g3718"
           transform="translate(1294.4772,668.8951)"
           style="fill:#ffffff"><path
             d="m 0,0 c 0,20.397 19.602,45.032 55.892,45.032 36.82,0 54.303,-17.483 54.303,-35.496 0,-16.423 -10.33,-20.661 -17.483,-20.661 0,32.846 -14.833,43.972 -36.82,43.972 -20.397,0 -36.555,-14.04 -36.555,-31.788 0,-45.826 96.95,-38.674 96.95,-96.156 0,-24.37 -23.575,-47.151 -63.839,-47.151 -41.058,0 -59.07,21.722 -59.07,36.556 0,16.688 14.304,19.072 14.304,19.072 0,0 3.708,-42.118 47.681,-42.118 35.495,0 41.588,23.046 41.588,31.522 0,9.006 -1.06,22.251 -43.973,40.264 C 5.298,-36.82 0,-18.542 0,0"
             style="fill:#ffffff;fill-opacity:1;fill-rule:nonzero;stroke:none"
             id="path3720"
             inkscape:connector-curvature="0" /></g><g
           id="g3722"
           transform="translate(1719.4894,686.6429)"
           style="fill:#ffffff"><path
             d="m 0,0 c 0,-9.801 -6.887,-20.661 -15.629,-20.661 0,23.84 -8.476,34.171 -38.409,34.171 -17.219,0 -41.059,-1.59 -41.059,-12.98 l 0,-55.628 45.297,0 c 13.245,0 15.364,-6.092 15.364,-10.066 0,-7.681 -9.537,-15.364 -16.953,-15.364 0,7.153 -5.033,11.921 -16.953,11.921 l -26.755,0 0,-65.429 c 0,-9.536 25.695,-9.801 44.238,-9.801 34.7,0 43.707,26.225 43.707,30.728 7.682,0 14.304,-7.417 14.304,-15.364 0,-22.781 -26.489,-27.284 -52.184,-27.284 l -90.593,0 0,9.536 8.742,0 c 5.562,0 12.714,3.444 12.714,11.92 l 0,137.745 c 0,4.768 -1.854,12.45 -12.714,12.45 l 8.642,7.682 20.761,0 c 12.979,0 50.594,1.589 64.103,1.589 C -5.828,25.165 -0.265,18.278 0,0"
             style="fill:#ffffff;fill-opacity:1;fill-rule:nonzero;stroke:none"
             id="path3724"
             inkscape:connector-curvature="0" /></g><g
           id="g3726"
           transform="translate(1855.4363,605.3208)"
           style="fill:#ffffff"><path
             d="M 0,0 C -9.271,24.635 -18.013,50.594 -27.018,75.23 -31.522,64.634 -39.734,41.058 -60.395,0 L 0,0 Z m 62.516,-66.488 0,-7.947 -57.218,0 0,7.947 6.358,0 c 5.032,0.265 7.947,3.443 7.947,7.152 0,1.854 -0.265,3.708 -1.06,5.828 -3.444,9.801 -11.39,32.846 -13.51,38.409 l -72.315,0 c -6.093,-12.715 -14.305,-32.052 -14.305,-41.588 0,-9.536 2.649,-15.629 6.622,-15.894 0,-1.324 -4.503,-6.357 -15.364,-6.357 -12.449,0 -13.774,12.45 -13.774,17.218 0,11.125 7.682,25.959 14.57,39.469 24.899,49.27 47.151,95.097 47.151,109.666 0,11.655 -7.682,12.979 -9.802,13.244 0,2.649 4.768,7.947 14.57,7.947 16.688,0 23.575,-14.039 28.873,-28.873 3.709,-10.596 47.415,-130.858 47.415,-130.858 3.974,-10.86 12.716,-15.363 17.218,-15.363 l 6.624,0 z"
             style="fill:#ffffff;fill-opacity:1;fill-rule:nonzero;stroke:none"
             id="path3728"
             inkscape:connector-curvature="0" /></g><g
           id="g3730"
           transform="translate(1901.7667,700.0311)"
           style="fill:#ffffff"><path
             d="m 0,0 c -29.251,28.068 -68.547,42.25 -118.479,42.25 -60.569,1.773 -122.616,-31.614 -168.116,-63.523 l -51.41,-35.455 c -19.205,-13.296 -35.455,-23.637 -49.046,-31.319 l -27.478,-14.478 c -28.068,-12.704 -55.251,-19.204 -81.251,-19.204 -33.682,0 -61.161,8.864 -82.137,26.296 -21.273,17.432 -31.911,40.478 -31.911,68.546 0,59.387 47.275,85.683 92.479,85.683 9.16,0 19.796,-1.477 26.888,-2.659 3.545,-0.591 7.976,-1.773 13.591,-3.841 l 12.113,-4.136 c 2.363,-0.887 6.796,-2.66 13.001,-5.614 l 11.818,-5.318 13,-6.205 12.409,-6.205 27.478,-12.408 c 13.295,-5.614 29.25,-8.273 47.273,-8.273 12.115,0 23.342,2.954 33.091,9.158 10.046,6.206 16.251,14.183 18.91,23.933 l -1.773,1.181 c -6.205,-13.295 -17.137,-20.09 -33.091,-20.09 -35.455,-0.295 -70.614,20.09 -103.116,35.454 -22.454,10.932 -50.523,19.501 -76.523,19.501 -55.842,0 -111.093,-33.092 -111.093,-99.865 0,-27.478 10.637,-50.819 31.91,-69.433 21.273,-18.614 49.342,-28.068 83.91,-28.068 26.001,0 53.774,6.5 83.024,19.5 l 27.478,14.182 c 13.887,7.977 30.433,18.318 49.636,31.614 19.206,13.295 36.638,25.114 52.002,35.455 15.364,10.341 31.909,20.681 49.932,31.022 36.342,20.387 75.342,32.501 114.343,32.501 51.705,0 92.363,-17.637 119.249,-44.819 26.887,-27.183 39.476,-63.023 39.476,-105.569 0,-45.869 -19.565,-105.774 -66.542,-133.843 -23.342,-13.887 -50.819,-20.977 -82.138,-20.977 -49.637,0 -96.32,17.728 -127.047,47.273 l -1.183,-0.886 c 16.252,-15.955 35.456,-28.956 58.206,-38.705 22.75,-9.751 46.682,-14.773 71.502,-14.773 48.454,0 89.524,20.091 114.342,50.818 25.114,30.728 39,70.32 39,111.388 C 43.727,-64.706 29.249,-28.068 0,0"
             style="fill:#ffffff;fill-opacity:1;fill-rule:nonzero;stroke:none"
             id="path3732"
             inkscape:connector-curvature="0" /></g><g
           id="g3734"
           transform="translate(1507.5129,554.1963)"
           style="fill:#ffffff"><path
             d="m 0,0 0,171.207 -19.337,0 0,-171.207 c 0,-9.536 -8.476,-15.364 -16.423,-15.364 l -9.006,0 0,-7.946 70.726,0 0,7.946 -9.801,0 C 6.358,-15.364 0,-8.212 0,0"
             style="fill:#ffffff;fill-opacity:1;fill-rule:nonzero;stroke:none"
             id="path3736"
             inkscape:connector-curvature="0" /></g><g
           id="g3738"
           transform="translate(1741.9811,481.9109)"
           style="fill:#ffffff"><path
             d="m 0,0 c -8.146,2.601 -11.567,9.538 -9.692,15.41 1.512,4.736 4.821,6.602 10.049,5.977 -0.939,-0.327 -1.802,-1.721 -2.467,-3.805 -1.271,-3.978 0.164,-7.985 5.279,-9.618 6.63,-2.117 13.128,1.236 15.547,8.813 2.238,7.009 1.461,13.729 -2.581,20.029 -4.102,6.111 -10.007,10.501 -17.395,12.86 -9.093,2.903 -18.455,2.344 -28.15,-1.867 -9.695,-4.211 -16.447,-12.284 -20.136,-23.839 -4.415,-13.829 -3.188,-26.328 3.555,-37.247 5.749,-9.56 14.168,-16.904 25.216,-21.487 -0.034,-1.702 -0.06,-3.039 -0.091,-4.576 -11.354,5.156 -20.368,12.831 -26.971,22.894 -8.335,12.473 -10.078,25.971 -5.3,40.936 3.689,11.556 10.691,19.757 21.006,24.605 10.126,4.908 20.807,5.673 31.794,2.165 C 8.566,48.407 15.107,43.396 19.476,36.157 23.595,28.788 24.569,21.379 22.15,13.802 18.763,3.194 9.851,-3.145 0,0"
             style="fill:#ffffff;fill-opacity:1;fill-rule:nonzero;stroke:none"
             id="path3740"
             inkscape:connector-curvature="0" /></g></g></g></g></svg>
